# xmcd CD database file
#
# Track frame offsets:
#	150
#	12633
#	26080
#	38363
#	51241
#	68844
#	80814
#	92459
#	106796
#	120281
#	132286
#	152212
#	166461
#	179099
#	194149
#	207553
#	220494
#	232866
#	245891
#	258942
#	273959
#	288592
#	303344
#
# Disc length: 4221 seconds
#
# Revision: 1
# Processed by: cddbd v1.5.2PL0 Copyright (c) Steve Scherf et al.
# Submitted via: CDex 1.81
#
DISCID=54107b17
DTITLE=Various Artist - JazzPiano History - [CD 06) Chicago
DYEAR=1900
DGENRE=Jazz
TTITLE0=Richard M. Jones - Jazzin' Babies' Blues
TTITLE1=Jimmy Blythe - Chicago Stomps
TTITLE2=Jimmy Blythe - Armour Ave. Struggle
TTITLE3=Jimmy Blythe - Mr. Freddie Blues
TTITLE4=Clarence Jones - Swanee Blues
TTITLE5=Alex Hill and Albert Wynn - Parkway Stomp
TTITLE6=Alex Hill - Stompinh' 'Em Down
TTITLE7=Alex Hill - Tack Head Blues
TTITLE8=Alex Hill and his Orchestra - Toogaloo Shout 
TTITLE9=Ferd (Jelly Roll) Morton - King Porter
TTITLE10=Ferd (Jelly Roll) Morton - Shreveport Stomp
TTITLE11=Ferd (Jelly Roll) Morton - Grandpa's Spells
TTITLE12=Ferd (Jelly Roll) Morton - The Parls
TTITLE13=Ferd (Jelly Roll) Morton - Wolverine Blues
TTITLE14=Ferd (Jelly Roll) Morton - Pep
TTITLE15=Ferd (Jelly Roll) Morton - 1 Naked Dance
TTITLE16=Earl Hines and Louis Armstrong - Weather Bird
TTITLE17=Earl Hines - Blues In Thirds (Caution Blues)
TTITLE18=Earl Hines - Panther Rag
TTITLE19=Earl Hines - A Monday Date
TTITLE20=Earl Hines - I Aint't Got Nobody
TTITLE21=Earl Hines - Fifty-Seven Varieties
TTITLE22=Earl Hines - Glad Rag Doll
EXTD=
EXTT0=
EXTT1=
EXTT2=
EXTT3=
EXTT4=
EXTT5=
EXTT6=
EXTT7=
EXTT8=
EXTT9=
EXTT10=
EXTT11=
EXTT12=
EXTT13=
EXTT14=
EXTT15=
EXTT16=
EXTT17=
EXTT18=
EXTT19=
EXTT20=
EXTT21=
EXTT22=
PLAYORDER=
